<?xml version="1.0" encoding="UTF-8"?><svg id="Calque_1" xmlns="http://www.w3.org/2000/svg" viewBox="0 0 283.46 283.46"><defs><style>.cls-1{fill:#f9b35e;}.cls-2{fill:#010101;}.cls-3{fill:#ef7e65;}.cls-4{fill:#fff;}.cls-5{fill:#edddd6;}</style></defs><path class="cls-5" d="M276.15,144.45c0,24.05-6.35,46.64-17.47,66.18-7.82,13.74-18.02,25.98-30.03,36.12-12.73,10.78-27.5,19.23-43.65,24.69-13.45,4.51-27.85,6.98-42.82,6.98-39.69,0-75.38-17.27-99.89-44.69-1.47-1.61-2.87-3.28-4.25-4.97-3.97-4.89-7.59-10.06-10.83-15.46-12.07-20.14-19.02-43.68-19.02-68.86C8.17,70.45,68.18,10.47,142.18,10.47s133.97,59.98,133.97,133.97Z"/><path class="cls-2" d="M106.71,115.88s-31.15,23.5-33.47,52.03c-3.51,43.19,45.62,24.29,51.02-3.24,5.4-27.53-17.55-48.79-17.55-48.79Z"/><path class="cls-1" d="M228.65,246.75c-12.73,10.78-27.5,19.23-43.65,24.69-13.45,4.51-27.85,6.98-42.82,6.98-39.69,0-75.38-17.27-99.89-44.69-1.47-1.61-2.87-3.28-4.25-4.97l84.8-61.44c.06-.03,3.28-2.39,3.28-2.39l33.31,2.7,13.82,1.12,55.41,77.99Z"/><path class="cls-2" d="M103.92,112.94s-11.24-12.42-8-31.68c2.2-13.05,8-17.28,8-17.28,0,0-8.85-17.82,17.49-16.74,26.34,1.08,41.83,14.01,41.83,14.01,0,0,12.04-5.91,17.44,8.12,5.4,14.04,0,34.74,0,34.74l-76.76,8.81Z"/><path class="cls-1" d="M126.11,167.09L42.28,233.73c-1.47-1.61-2.87-3.28-4.25-4.97-3.97-4.89-7.59-10.06-10.83-15.46,2.59-2.33,5.29-4.66,8.08-6.98,38.42-32.04,76.41-37.93,87.56-39,2.16-.2,3.28-.23,3.28-.23Z"/><path class="cls-3" d="M161.73,134.64l-.65,34.36s-5.99,9.69-24.83,10.73c-14.04,.77-18.33-7.06-18.33-7.06l3.96-29.96,34.13-6.9,5.73-1.17Z"/><path class="cls-1" d="M258.68,210.63c-7.82,13.74-18.02,25.98-30.03,36.12-12.73,10.78-27.5,19.23-43.65,24.69l21.67-26.41-47.24-77.39-.34-.55s5.43,.2,14.17,1.67c19.89,3.3,56.84,13.1,85.44,41.87Z"/><path class="cls-2" d="M161.73,132.67c-.1,.88-.46,1.9-1.01,3.08-7.6,15.88-33.08,21.93-41.19,22.45l2.32-15.83,39.88-9.7Z"/><path class="cls-3" d="M116.53,68.92s-17.88,39.88-11.79,62.44c6.09,22.56,26.62,19.22,38.93,14.98,12.31-4.23,18.07-11.7,18.07-11.7,0,0,11.42,3.99,19.19-6.59,7.77-10.58,3.16-22.86-3.35-25.73-6.52-2.87-14.34,1.78-14.34,1.78l6.21-11.58s-25.09-59.4-52.91-23.62Z"/><path class="cls-2" d="M163.23,104.11s-17.22,3.48-29.19-15.69c-11.96-19.17-10.87-27.04-10.87-27.04l-11.92,19.79s-2.67-13.72,2.82-22.47c5.49-8.75,11.18-6.93,11.18-6.93l37.98,9.49,10,30.44-10.01,12.41Z"/><path class="cls-2" d="M117.89,119.98c-.61,0-1.18-.4-1.38-1.02-2.65-8.65,3.45-17.4,3.72-17.77,.46-.65,1.35-.8,2-.34s.8,1.35,.35,2c-.06,.08-5.54,7.99-3.31,15.27,.23,.76-.2,1.56-.95,1.79-.14,.04-.28,.06-.42,.06Z"/><path class="cls-2" d="M164.88,123.06c-.36,0-.71-.13-.99-.39-.58-.55-.6-1.46-.05-2.03l10.91-11.5c.54-.57,1.46-.59,2.03-.05,.58,.55,.6,1.46,.05,2.03l-10.91,11.5c-.28,.3-.66,.45-1.04,.45Z"/><path class="cls-2" d="M176.41,120.01c-.07,0-.15,0-.22-.02l-7.52-1.16c-.79-.12-1.32-.85-1.2-1.64,.12-.78,.87-1.31,1.64-1.2l7.52,1.16c.79,.12,1.32,.85,1.2,1.64-.11,.71-.72,1.22-1.42,1.22Z"/><path class="cls-2" d="M132.32,131.44c-3.79,0-8.09-2.56-8.71-2.94-.44-.27-.7-.76-.68-1.27,.02-.52,.31-.98,.77-1.22l12.13-6.33c.37-.2,.82-.22,1.22-.05,.39,.17,.69,.5,.82,.91,.08,.28,1.98,6.77-2.05,9.86-1,.76-2.22,1.06-3.49,1.06Zm-4.85-4.17c2.32,1.03,5.24,1.86,6.6,.83,1.49-1.14,1.55-3.4,1.37-4.99l-7.97,4.16Z"/><path class="cls-2" d="M110.18,87.18c-.68,0-1.29-.49-1.41-1.19-.14-.78,.39-1.53,1.17-1.66l7.11-1.24c.77-.13,1.52,.39,1.66,1.17,.14,.78-.39,1.53-1.17,1.66l-7.11,1.24c-.08,.01-.17,.02-.25,.02Z"/><path class="cls-2" d="M139.75,91.85c-.22,0-.44-.05-.65-.15l-11.67-5.91c-.71-.36-.99-1.22-.63-1.93,.36-.71,1.23-.99,1.93-.63l11.67,5.91c.71,.36,.99,1.22,.63,1.93-.25,.5-.76,.79-1.28,.79Z"/><path class="cls-2" d="M184.99,115.88s24.84,21.53,21.33,56.62c-3.51,35.09-38.31,30.59-45.61,17.78-11.07-19.4,1.03-55.64,1.03-55.64,0,0,21.34,3.57,23.25-18.77Z"/><path class="cls-2" d="M110.18,103.62c-.14,0-.28-.02-.42-.06-.76-.23-1.18-1.04-.95-1.8l1.99-6.49-1.73-2.12c-.5-.61-.41-1.52,.2-2.02,.61-.5,1.52-.41,2.02,.2l2.22,2.72c.31,.37,.4,.87,.26,1.33l-2.22,7.23c-.19,.62-.76,1.01-1.37,1.01Z"/><path class="cls-2" d="M131.95,105.56c-.14,0-.28-.02-.42-.06-.76-.23-1.18-1.04-.95-1.8l1.99-6.47-2.55-2.98c-.52-.6-.45-1.51,.16-2.03,.6-.51,1.51-.45,2.03,.16l3.07,3.58c.32,.37,.43,.89,.28,1.36l-2.22,7.23c-.19,.62-.76,1.01-1.37,1.01Z"/><path class="cls-4" d="M136.35,181.1c-12.23,0-19.48-6.67-19.58-6.77-.58-.54-.6-1.45-.06-2.03,.54-.57,1.45-.6,2.03-.06,.58,.54,14.3,13.03,36.59,.52,.7-.4,1.57-.14,1.96,.55,.39,.69,.14,1.57-.55,1.96-7.75,4.35-14.63,5.83-20.39,5.83Z"/></svg>