<?xml version="1.0" encoding="UTF-8"?><svg id="Calque_2" xmlns="http://www.w3.org/2000/svg" viewBox="0 0 78.78 29.65"><defs><style>.cls-1{fill:#fff;}</style></defs><g><path class="cls-1" d="M6.46,25.51s-.04,0-.05,0c-.17-.03-.29-.2-.26-.37l1.81-10.37s.55-2.27,2.99-2.27c1.47,0,2.39,1.2,2.72,2.22,0,.02,0,.04,.01,.05l1.54,10.37c.03,.17-.09,.34-.27,.36-.17,.02-.34-.09-.36-.27l-1.54-10.34c-.28-.82-.99-1.76-2.11-1.76-1.93,0-2.35,1.68-2.37,1.76l-1.8,10.35c-.03,.15-.16,.26-.31,.26Z"/><path class="cls-1" d="M16.92,25.51s-.04,0-.06,0c-.17-.03-.29-.2-.26-.37l1.81-10.37s.55-2.27,2.99-2.27c1.47,0,2.39,1.2,2.72,2.22,0,.02,0,.04,.01,.05l1.54,10.37c.03,.17-.09,.34-.27,.36-.17,.02-.34-.09-.36-.27l-1.54-10.34c-.28-.82-.99-1.76-2.11-1.76-1.94,0-2.35,1.68-2.37,1.75l-1.8,10.36c-.03,.15-.16,.26-.31,.26Z"/><path class="cls-1" d="M22.43,21.03s-.09,0-.13,0c-1.17-.05-14.02-.26-14.15-.26-.01,0-.03,0-.04,0-.02,0-1.96-.33-1.96-2.67,0-1.69,1.23-2.32,1.88-2.41,.02,0,.03,0,.05,0h7.48l.03-.53h-2.21c-.09,0-.17-.03-.23-.09s-.09-.14-.09-.23c0-.68,.06-6.69,.27-7.4,.73-2.43,2.07-2.76,3.05-2.99l.1-.02c.69-.17,4.7-.27,6.08,0,1.91,.37,2.97,1.55,3.14,3.49,.2,2.2,.48,8.56,0,10.53-.26,1.02-1.36,2.6-3.25,2.6Zm-14.25-.9c.82,.01,12.97,.22,14.14,.26,1.59,.05,2.52-1.27,2.74-2.12,.44-1.75,.22-7.74,0-10.32-.09-1.05-.47-2.5-2.63-2.92-1.31-.26-5.19-.15-5.81,0l-.1,.02c-.92,.22-1.96,.48-2.59,2.56-.13,.45-.22,4.34-.24,6.9h2.22c.09,0,.17,.04,.23,.1,.06,.06,.09,.15,.09,.24l-.07,1.17c-.01,.17-.15,.3-.32,.3h-7.75c-.17,.03-1.31,.31-1.31,1.78,0,1.69,1.23,2,1.4,2.04Z"/></g><g><path class="cls-1" d="M38.06,7.39c-.34-.89-.96-1.53-2.17-1.53-1.36,0-2.5,.96-2.5,2.99s1.14,2.99,2.5,2.99c1.22,0,1.83-.64,2.17-1.53l1.47,.38c-.41,1.68-1.73,2.66-3.64,2.66-2.2,0-4.16-1.56-4.16-4.5s1.96-4.5,4.16-4.5c1.91,0,3.23,.98,3.64,2.66l-1.47,.38Z"/><path class="cls-1" d="M48.99,8.85c0,3.05-1.92,4.5-4.15,4.5s-4.15-1.44-4.15-4.5,1.92-4.5,4.15-4.5,4.15,1.44,4.15,4.5Zm-6.63,0c0,2.09,1.17,2.99,2.49,2.99s2.49-.9,2.49-2.99-1.17-2.99-2.49-2.99-2.49,.9-2.49,2.99Z"/><path class="cls-1" d="M50.72,4.45h1.83l2.07,5.49,2.07-5.49h1.83V13.25h-1.63V7.82l-1.68,4.62h-1.18l-1.68-4.62v5.43h-1.63V4.45Z"/><path class="cls-1" d="M65.9,4.45v1.51h-3.93v2.01h3.17v1.51h-3.17v3.77h-1.63V4.45h5.57Z"/><path class="cls-1" d="M68.37,4.45l1.6,3.42,1.6-3.42h1.76l-2.54,5.05v3.74h-1.63v-3.74l-2.54-5.05h1.76Z"/></g><g><path class="cls-1" d="M35.71,18.97c-.34-.65-.7-.93-1.22-.93-.48,0-.84,.34-.84,.8,0,1.53,3.76,1.33,3.76,3.95,0,1.72-1.13,2.74-2.81,2.74-1.6,0-2.75-1.12-3.03-2.46l1.32-.83c.26,.94,.79,1.78,1.75,1.78,.68,0,1.14-.34,1.14-1.14,0-1.46-3.68-1.17-3.68-3.96,0-1.33,1.02-2.39,2.4-2.39,1.17,0,2.06,.58,2.54,1.6l-1.32,.84Z"/><path class="cls-1" d="M38.03,16.63h6.51v1.51h-2.44v7.29h-1.63v-7.29h-2.44v-1.51Z"/><path class="cls-1" d="M52.38,22.08c0,2.35-1.36,3.44-3.28,3.44s-3.28-1.09-3.28-3.44v-5.45h1.63v5.48c0,1.28,.54,1.91,1.65,1.91s1.65-.63,1.65-1.91v-5.48h1.63v5.45Z"/><path class="cls-1" d="M53.92,25.42v-8.8h2.75c2.07,0,4.1,1.32,4.1,4.4s-2.02,4.4-4.1,4.4h-2.75Zm2.24-1.51c1.41,0,2.95-.55,2.95-2.89s-1.55-2.89-2.95-2.89h-.6v5.78h.6Z"/><path class="cls-1" d="M63.87,25.42h-1.63v-8.8h1.63v8.8Z"/><path class="cls-1" d="M73.81,21.03c0,3.05-1.92,4.5-4.15,4.5s-4.15-1.44-4.15-4.5,1.92-4.5,4.15-4.5,4.15,1.44,4.15,4.5Zm-6.63,0c0,2.09,1.17,2.99,2.49,2.99s2.49-.9,2.49-2.99-1.17-2.99-2.49-2.99-2.49,.9-2.49,2.99Z"/></g></svg>