<?xml version="1.0" encoding="UTF-8"?><svg id="Calque_2" xmlns="http://www.w3.org/2000/svg" viewBox="0 0 25.13 23.72"><defs><style>.cls-1{fill:#fff;stroke:#fff;stroke-miterlimit:10;stroke-width:.75px;}</style></defs><path class="cls-1" d="M12.45,11.45c-2.58,0-4.68-2.1-4.68-4.68s2.1-4.68,4.68-4.68,4.68,2.1,4.68,4.68-2.1,4.68-4.68,4.68Zm0-8.84c-2.29,0-4.15,1.86-4.15,4.15s1.86,4.15,4.15,4.15,4.15-1.86,4.15-4.15-1.86-4.15-4.15-4.15Z"/><path class="cls-1" d="M18.31,21.17H6.82c-.15,0-.26-.12-.26-.26v-3.97c0-3.31,2.7-6.01,6.01-6.01s6.01,2.7,6.01,6.01v3.97c0,.15-.12,.26-.26,.26Zm-11.23-.53h10.97v-3.71c0-3.02-2.46-5.48-5.48-5.48s-5.48,2.46-5.48,5.48v3.71Z"/></svg>