<?xml version="1.0" encoding="UTF-8"?><svg id="Calque_2" xmlns="http://www.w3.org/2000/svg" viewBox="0 0 213.15 75.97"><defs><style>.cls-1{fill:#1d1d1b;}</style></defs><g><path class="cls-1" d="M5.11,69.76h-.15c-.52-.09-.89-.61-.8-1.13l5.54-31.73s1.68-6.94,9.15-6.94c4.5,0,7.31,3.67,8.32,6.79,0,.06,0,.12,.03,.15l4.71,31.73c.09,.52-.28,1.04-.83,1.1-.52,.06-1.04-.28-1.1-.83l-4.71-31.63c-.86-2.51-3.03-5.38-6.46-5.38-5.9,0-7.19,5.14-7.25,5.38l-5.51,31.66c-.09,.46-.49,.8-.95,.8v.03Z"/><path class="cls-1" d="M37.11,69.76h-.18c-.52-.09-.89-.61-.8-1.13l5.54-31.73s1.68-6.94,9.15-6.94c4.5,0,7.31,3.67,8.32,6.79,0,.06,0,.12,.03,.15l4.71,31.73c.09,.52-.28,1.04-.83,1.1-.52,.06-1.04-.28-1.1-.83l-4.71-31.63c-.86-2.51-3.03-5.38-6.46-5.38-5.94,0-7.19,5.14-7.25,5.35l-5.51,31.69c-.09,.46-.49,.8-.95,.8l.03,.03Z"/><path class="cls-1" d="M53.97,56.05h-.4c-3.58-.15-42.89-.8-43.29-.8h-.12c-.06,0-6-1.01-6-8.17,0-5.17,3.76-7.1,5.75-7.37h23.04l.09-1.62h-6.76c-.28,0-.52-.09-.7-.28s-.28-.43-.28-.7c0-2.08,.18-20.47,.83-22.64,2.23-7.43,6.33-8.44,9.33-9.15l.31-.06c2.11-.52,14.38-.83,18.6,0,5.84,1.13,9.09,4.74,9.61,10.68,.61,6.73,1.47,26.19,0,32.21-.8,3.12-4.16,7.95-9.94,7.95l-.06-.06Zm-43.6-2.75c2.51,.03,39.68,.67,43.26,.8,4.86,.15,7.71-3.89,8.38-6.49,1.35-5.35,.67-23.68,0-31.57-.28-3.21-1.44-7.65-8.05-8.93-4.01-.8-15.88-.46-17.77,0l-.31,.06c-2.81,.67-6,1.47-7.92,7.83-.4,1.38-.67,13.28-.73,21.11h6.79c.28,0,.52,.12,.7,.31,.18,.18,.28,.46,.28,.73l-.21,3.58c-.03,.52-.46,.92-.98,.92H10.09c-.52,.09-4.01,.95-4.01,5.45,0,5.17,3.76,6.12,4.28,6.24v-.03Z"/></g><g><path class="cls-1" d="M101.78,14.32c-1.04-2.72-2.94-4.68-6.64-4.68-4.16,0-7.65,2.94-7.65,9.15s3.49,9.15,7.65,9.15c3.73,0,5.6-1.96,6.64-4.68l4.5,1.16c-1.25,5.14-5.29,8.14-11.14,8.14-6.73,0-12.73-4.77-12.73-13.77s6-13.77,12.73-13.77c5.84,0,9.88,3,11.14,8.14l-4.5,1.16Z"/><path class="cls-1" d="M135.22,18.79c0,9.33-5.87,13.77-12.7,13.77s-12.7-4.41-12.7-13.77,5.87-13.77,12.7-13.77,12.7,4.41,12.7,13.77Zm-20.28,0c0,6.39,3.58,9.15,7.62,9.15s7.62-2.75,7.62-9.15-3.58-9.15-7.62-9.15-7.62,2.75-7.62,9.15Z"/><path class="cls-1" d="M140.51,5.33h5.6l6.33,16.8,6.33-16.8h5.6v26.92h-4.99V15.64l-5.14,14.13h-3.61l-5.14-14.13v16.61h-4.99V5.33Z"/><path class="cls-1" d="M186.95,5.33v4.62h-12.02v6.15h9.7v4.62h-9.7v11.53h-4.99V5.33h17.01Z"/><path class="cls-1" d="M194.51,5.33l4.89,10.46,4.89-10.46h5.38l-7.77,15.45v11.44h-4.99v-11.44l-7.77-15.45h5.35Z"/></g><g><path class="cls-1" d="M94.59,49.75c-1.04-1.99-2.14-2.85-3.73-2.85-1.47,0-2.57,1.04-2.57,2.45,0,4.68,11.5,4.07,11.5,12.08,0,5.26-3.46,8.38-8.6,8.38s-8.41-3.43-9.27-7.53l4.04-2.54c.8,2.88,2.42,5.45,5.35,5.45,2.08,0,3.49-1.04,3.49-3.49,0-4.47-11.26-3.58-11.26-12.11,0-4.07,3.12-7.31,7.34-7.31,3.58,0,6.3,1.77,7.77,4.89l-4.04,2.57h-.03Z"/><path class="cls-1" d="M101.69,42.59h19.92v4.62h-7.46v22.3h-4.99v-22.3h-7.46v-4.62Z"/><path class="cls-1" d="M145.59,59.26c0,7.19-4.16,10.52-10.03,10.52s-10.03-3.33-10.03-10.52v-16.67h4.99v16.77c0,3.92,1.65,5.84,5.05,5.84s5.05-1.93,5.05-5.84v-16.77h4.99v16.67Z"/><path class="cls-1" d="M150.3,69.48v-26.92h8.41c6.33,0,12.54,4.04,12.54,13.46s-6.18,13.46-12.54,13.46h-8.41Zm6.85-4.62c4.31,0,9.03-1.68,9.03-8.84s-4.74-8.84-9.03-8.84h-1.84v17.68h1.84Z"/><path class="cls-1" d="M180.74,69.48h-4.99v-26.92h4.99v26.92Z"/><path class="cls-1" d="M211.15,56.05c0,9.33-5.87,13.77-12.7,13.77s-12.7-4.41-12.7-13.77,5.87-13.77,12.7-13.77,12.7,4.41,12.7,13.77Zm-20.28,0c0,6.39,3.58,9.15,7.62,9.15s7.62-2.75,7.62-9.15-3.58-9.15-7.62-9.15-7.62,2.75-7.62,9.15Z"/></g></svg>