<?xml version="1.0" encoding="UTF-8"?><svg id="Calque_2" xmlns="http://www.w3.org/2000/svg" viewBox="0 0 25.13 23.72"><defs><style>.cls-1{fill:#fff;stroke:#fff;stroke-miterlimit:10;stroke-width:.75px;}</style></defs><path class="cls-1" d="M23.2,8.99h-3.73V4.47c0-.39-.32-.71-.71-.71H5.88c-.39,0-.71,.32-.71,.71v4.53H1.74c-.17,0-.3,.14-.3,.3s.14,.3,.3,.3h3.43v.6c0,.17,.14,.3,.3,.3s.3-.14,.3-.3v-.6h13.1v.61c0,.17,.14,.3,.3,.3s.3-.14,.3-.3v-.61h3.73c.17,0,.3-.14,.3-.3s-.14-.3-.3-.3Zm-17.43,0V4.36h13.1v4.64H5.77Z"/><path class="cls-1" d="M17.96,20.5l3-8c.06-.16-.03-.33-.18-.39-.16-.06-.33,.03-.39,.18l-3,8c-.06,.16,.03,.33,.18,.39,.16,.06,.33-.03,.39-.18Z"/><path class="cls-1" d="M17.58,20.08H7.19l-2.75-7.78c-.06-.16-.23-.24-.39-.18-.16,.06-.24,.23-.18,.39l2.82,7.98c.04,.12,.16,.2,.29,.2h10.6c.17,0,.3-.14,.3-.3h-5.69c0-.17,5.55-.3,5.39-.3Z"/><path class="cls-1" d="M10,17.35v-5.04c0-.17-.14-.3-.3-.3s-.3,.14-.3,.3v5.04c0,.17,.14,.3,.3,.3s.3-.14,.3-.3Z"/><path class="cls-1" d="M12.42,12.01c-.17,0-.3,.14-.3,.3v5.13c0,.17,.14,.3,.3,.3s.3-.14,.3-.3v-5.13c0-.17-.14-.3-.3-.3Z"/><path class="cls-1" d="M15.14,12.01c-.17,0-.3,.14-.3,.3v5.24c0,.17,.14,.3,.3,.3s.3-.14,.3-.3v-5.24c0-.17-.14-.3-.3-.3Z"/></svg>